HIERARCHY
ROOT pelvis
{
	OFFSET 0.000000 0.000000 0.000000
	CHANNELS 6 Xposition Yposition Zposition Zrotation Xrotation Yrotation
	JOINT lfemur
	{
		OFFSET 11.446000 0.000000 0.000000
		CHANNELS 3 Zrotation Xrotation Yrotation
		JOINT ltibia
		{
			OFFSET 0.000000 -42.030400 0.000000
			CHANNELS 3 Zrotation Xrotation Yrotation
			JOINT lfoot
			{
				OFFSET 0.000000 -39.930200 0.000000
				CHANNELS 3 Zrotation Xrotation Yrotation
				JOINT ltoes
				{
					OFFSET 0.000000 0.000000 11.775800
					CHANNELS 3 Zrotation Xrotation Yrotation
					End Site
					{
					    OFFSET 0.000000 0.000000 5.000000
					}
				}
			}
		}
	}
	JOINT rfemur
	{
		OFFSET -11.446000 0.000000 0.000000
		CHANNELS 3 Zrotation Xrotation Yrotation
		JOINT rtibia
		{
			OFFSET 0.000000 -42.030400 0.000000
			CHANNELS 3 Zrotation Xrotation Yrotation
			JOINT rfoot
			{
				OFFSET 0.000000 -39.930200 0.000000
				CHANNELS 3 Zrotation Xrotation Yrotation
				JOINT rtoes
				{
					OFFSET 0.000000 0.000000 11.775800
					CHANNELS 3 Zrotation Xrotation Yrotation
					End Site
					{
					    OFFSET 0.000000 0.000000 5.000000
					}
				}
			}
		}
	}
	JOINT thorax
	{
		OFFSET 0.000000 11.255600 -5.000000
		CHANNELS 3 Zrotation Xrotation Yrotation
		JOINT head
		{
			OFFSET 0.000000 43.799300 0.000000
			CHANNELS 3 Zrotation Xrotation Yrotation
			End Site
			{
			    OFFSET 0.000000 5.000000 0.000000
			}
		}
		JOINT lclavicle
		{
			OFFSET 0.000000 39.863000 0.000000
			CHANNELS 3 Zrotation Xrotation Yrotation
			JOINT lhumerus
			{
				OFFSET 17.380600 4.958300 0.000000
				CHANNELS 3 Zrotation Xrotation Yrotation
				JOINT lradius
				{
					OFFSET 0.000000 -27.561300 0.000000
					CHANNELS 3 Zrotation Xrotation Yrotation
					JOINT lhand
					{
						OFFSET 0.000000 -26.933000 0.000000
						CHANNELS 3 Zrotation Xrotation Yrotation
						End Site
						{
						    OFFSET 0.000000 -5.000000 0.000000
						}
					}
				}
			}
		}
		JOINT rclavicle
		{
			OFFSET 0.000000 39.863000 0.000000
			CHANNELS 3 Zrotation Xrotation Yrotation
			JOINT rhumerus
			{
				OFFSET -17.380600 4.958300 0.000000
				CHANNELS 3 Zrotation Xrotation Yrotation
				JOINT rradius
				{
					OFFSET 0.000000 -27.561300 0.000000
					CHANNELS 3 Zrotation Xrotation Yrotation
					JOINT rhand
					{
						OFFSET 0.000000 -26.933000 0.000000
						CHANNELS 3 Zrotation Xrotation Yrotation
						End Site
						{
						    OFFSET 0.000000 -5.000000 0.000000
						}
					}
				}
			}
		}
	}
}
MOTION
Frames:	9
Frame Time:	0.0333333
-217.562 89.3576 6.80302 -0.707546 -0.0570083 91.1744 -2.25053 -0.696651 0.16853 1.82262 9.72677 6.3687 3.40196 2.28217 0.0382731 4.51239e-015 -5 1.59635e-015 3.31257 1.29544 -0.289368 -0.199657 7.86201 -14.8324 -4.05261 4.12576 -0.101286 -2.55971e-016 -5 3.1927e-015 -2.28407 1.12199 -0.723527 -0.0108909 -0.945499 -5.76621 -2.6186e-033 1.50952e-015 9.93923e-017 77.6574 -4.01023 71.6119 5.65539 -0.0498536 -49.4343 1.43908 -5.88298 -9.79149 -2.6186e-033 1.50952e-015 9.93923e-017 -66.182 9.31997 -40.6661 -1.78914 -9.07951 13.2686 -1.41727 -3.94846 9.83152 
-217.574 89.3576 6.83075 -0.720149 -0.0547527 91.1589 -2.21941 -0.74392 0.202409 1.79675 9.78672 6.35596 3.40144 2.25336 0.0384682 -2.58438e-016 -5 1.59635e-015 3.32587 1.26004 -0.27094 -0.203007 7.89593 -14.8205 -4.02785 4.11211 -0.101333 -1.57785e-015 -5 -0 -2.31094 1.06741 -0.696739 -0.0237781 -0.745851 -5.78926 3.97569e-016 1.9661e-015 4.96962e-017 77.6357 -4.05283 71.7256 5.74276 -0.109032 -49.5957 1.28707 -5.98167 -9.80818 3.97569e-016 1.9661e-015 4.96962e-017 -66.1978 9.31993 -40.6477 -1.72344 -9.19152 13.2723 -1.43664 -3.90637 9.83155 
-217.588 89.357 6.87963 -0.685102 -0.0310586 91.1908 -2.17995 -0.744483 0.253573 1.75345 9.83075 6.27144 3.40184 2.23847 0.0383137 1.96802e-015 -5 -4.78906e-015 3.28099 1.30215 -0.361584 -0.112439 7.87513 -14.7424 -4.03015 4.08618 -0.101498 -7.76503e-017 -5 -0 -2.385 0.896933 -0.717205 -0.0777565 -0.20325 -5.71302 -7.95139e-016 -1.95368e-015 -9.93923e-017 77.5628 -4.18907 71.749 5.89073 -0.208547 -49.8217 1.26356 -5.94832 -9.8159 -7.95139e-016 -1.95368e-015 -9.93923e-017 -66.2036 9.31108 -40.512 -1.74219 -9.28635 13.4828 -1.31164 -4.01887 9.83011 
-217.585 89.3557 6.92536 -0.568519 0.00342776 91.2415 -2.14919 -0.637623 0.311483 1.71021 9.83795 6.15714 3.40223 2.23994 0.037919 9.3427e-016 -5 1.59635e-015 3.19584 1.45198 -0.537577 0.0374106 7.8284 -14.6128 -4.09695 4.0446 -0.101702 -4.3919e-015 -5 -0 -2.44117 0.711671 -0.802439 -0.222939 0.4972 -5.5254 -0 -5.40446e-016 -0 77.5173 -4.38961 71.6293 6.02419 -0.0839325 -50.0146 1.56451 -5.75928 -9.78312 -0 -5.40446e-016 -0 -66.2154 9.26503 -40.24 -1.85533 -9.26145 13.8155 -1.24662 -4.15664 9.82663 
-217.58 89.3508 6.96019 -0.432 0.0338203 91.2171 -2.13093 -0.504686 0.370786 1.67195 9.85316 6.12611 3.39603 2.23118 0.0373851 -6.56007e-016 -5 1.59635e-015 3.13708 1.56394 -0.657244 0.126819 7.89287 -14.4807 -4.18043 3.96567 -0.101937 -1.60814e-015 -5 -0 -2.39696 0.631925 -0.861846 -0.5318 1.05059 -5.4229 3.97569e-016 -4.00675e-016 -0 77.316 -4.45882 71.4656 6.07836 -0.0637025 -50.0086 1.75899 -5.54317 -9.76662 3.97569e-016 -4.00675e-016 -0 -66.2964 9.14674 -40.0053 -1.91428 -9.19243 14.024 -1.33264 -4.14175 9.82365 
-217.599 89.3438 6.98682 -0.364616 0.0730804 91.1352 -2.13984 -0.449184 0.401687 1.64108 9.8636 6.18371 3.3794 2.23114 0.036814 -1.47097e-015 -5 -3.1927e-015 3.10038 1.51828 -0.690078 0.13699 8.09236 -14.3833 -4.22575 3.85213 -0.102197 -6.9328e-016 -5 1.59635e-015 -2.30963 0.6467 -0.850748 -0.899659 1.32563 -5.52741 7.95139e-016 1.0312e-015 -4.96962e-017 77.1051 -4.43405 71.4014 6.08155 -0.0133786 -49.8575 1.72329 -5.54234 -9.76767 7.95139e-016 1.0312e-015 -4.96962e-017 -66.3918 8.97024 -40.0042 -1.85179 -9.16558 14.1357 -1.31267 -4.09937 9.82571 
-217.647 89.3405 7.01048 -0.385485 0.12487 91.1078 -2.16841 -0.492316 0.390809 1.61991 9.85231 6.21376 3.36537 2.26231 0.0363078 2.38542e-015 -5 -0 3.05369 1.37153 -0.711294 0.142741 8.29167 -14.348 -4.2432 3.755 -0.102482 -5.96534e-017 -5 1.59635e-015 -2.30952 0.681604 -0.831247 -1.07037 1.50641 -5.71029 -5.76523e-034 -6.64686e-016 -4.96962e-017 76.9796 -4.42275 71.4198 6.0347 -0.0472579 -49.6552 1.6147 -5.58451 -9.77895 -5.76523e-034 -6.64686e-016 -4.96962e-017 -66.3493 8.8173 -40.2295 -1.75577 -9.17436 14.333 -1.07215 -4.19643 9.84465 
-217.696 89.3364 7.03416 -0.418009 0.161701 91.1532 -2.18063 -0.570529 0.370539 1.60978 9.86667 6.17045 3.35712 2.29138 0.0358226 -1.45115e-015 -5 1.59635e-015 3.02099 1.26265 -0.741183 0.167467 8.3895 -14.3693 -4.26638 3.71299 -0.102792 -3.50605e-015 -5 -1.59635e-015 -2.37712 0.745738 -0.847526 -0.976157 1.8467 -5.79333 -7.95139e-016 1.35111e-016 -0 77.0048 -4.49248 71.5428 5.95515 0.000475045 -49.5643 1.71699 -5.52093 -9.76795 -7.95139e-016 1.35111e-016 -0 -66.1653 8.75088 -40.4975 -1.73358 -9.15417 14.5609 -0.837567 -4.36079 9.86295 
-217.723 89.3324 7.05836 -0.393809 0.167967 91.1726 -2.16847 -0.602185 0.367949 1.61045 9.93794 6.14294 3.34383 2.27708 0.0350613 2.38542e-015 -5 -0 3.03044 1.24789 -0.744112 0.170211 8.43366 -14.383 -4.28784 3.6976 -0.103118 1.81884e-015 -5 3.1927e-015 -2.38177 0.88844 -0.855049 -0.820016 2.33762 -5.76151 -3.97569e-016 -7.29912e-017 4.96962e-017 76.9492 -4.53559 71.7346 5.91511 0.00379816 -49.5926 1.91548 -5.35017 -9.75142 -3.97569e-016 -7.29912e-017 4.96962e-017 -66.0119 8.7184 -40.6642 -1.78508 -9.05547 14.5882 -0.780863 -4.42933 9.8673 
